<svg width="26" height="30" viewBox="0 0 26 30" fill="none" xmlns="http://www.w3.org/2000/svg">
  <path d="M25.4542 23.3782C25.0045 24.397 24.4488 25.3685 23.7958 26.2776C22.9236 27.4881 22.2073 28.3247 21.6583 28.7903C20.8055 29.551 19.8894 29.9424 18.91 29.9645C18.2083 29.9645 17.3604 29.7704 16.3728 29.3758C15.382 28.9828 14.4724 28.7903 13.6392 28.7903C12.7669 28.7903 11.8313 28.9828 10.8291 29.3758C9.82858 29.7704 9.01968 29.9772 8.40083 29.9961C7.46361 30.0356 6.52639 29.6347 5.59243 28.7903C4.99631 28.2852 4.25077 27.4171 3.35578 26.1892C2.39745 24.8807 1.60967 23.3577 0.992441 21.6262C0.331355 19.7528 0 17.9408 0 16.1857C0 14.1765 0.44668 12.442 1.34166 10.9899C2.01858 9.8495 2.98633 8.89772 4.15168 8.22624C5.30082 7.55651 6.61262 7.19589 7.95252 7.18139C8.69969 7.18139 9.67914 7.40551 10.8925 7.84744C12.1058 8.28937 12.8855 8.5135 13.225 8.5135C13.4816 8.5135 14.3441 8.24992 15.8125 7.72749C17.198 7.24294 18.3675 7.0425 19.3258 7.12141C21.9247 7.32502 23.8754 8.31936 25.1732 10.1123C22.8505 11.4808 21.7021 13.3953 21.7249 15.8527C21.7444 17.7672 22.4607 19.3598 23.8641 20.624C24.4845 21.2009 25.2084 21.6626 26 21.9861C25.8278 22.4706 25.6459 22.9331 25.4542 23.3782ZM19.498 0.601343C19.498 2.10075 18.9327 3.50231 17.8103 4.79811C16.4524 6.33856 14.8119 7.23032 13.0333 7.08985C13.01 6.9013 12.9986 6.71154 12.9992 6.52165C12.9992 5.08063 13.6424 3.54019 14.7908 2.2791C15.3625 1.64146 16.0902 1.10956 16.9722 0.686572C17.8526 0.269894 18.6842 0.0394582 19.4671 0C19.4882 0.202026 19.498 0.402474 19.498 0.601343Z" fill="#0071E4" />
</svg>